<?xml version="1.0" encoding="utf-8"?>

<!DOCTYPE svg>
<svg version="1.1" id="Layer_1" xmlns="http://www.w3.org/2000/svg" xmlns:xlink="http://www.w3.org/1999/xlink" x="0px" y="0px"
	 width="813.035px" height="418.714px" viewBox="0 0 813.035 418.714" enable-background="new 0 0 813.035 418.714"
	 xml:space="preserve">
<g>
	<path d="M476.007,33.859c-7.164,0.998-10.292,10.422-10.264,13.624c-0.115,1.352-0.136,4.756,2.084,7.17
		c1.311,1.421,3.129,2.174,5.267,2.174c0.393,0,0.805-0.025,1.298-0.086c5.035-0.75,9.328-5.406,9.983-10.832
		c0.549-4.582-0.102-7.954-1.936-10.021C480.932,34.188,478.749,33.457,476.007,33.859z"/>
	<path d="M526.788,40.416c0.403,0,0.835-0.026,1.23-0.075c4.384-0.425,11.183-6.253,11.444-14.167
		c-0.044-6.569-2.879-10.492-7.584-10.492c-0.528,0-1.093,0.052-1.71,0.166c-7.061,1.347-10.701,12.21-10.671,15.512
		c-0.23,2.753,0.496,5.268,1.999,6.897C522.399,39.241,524.052,40.416,526.788,40.416z"/>
	<path d="M754.847,187.132c0.003-0.046,0.003-0.1,0.006-0.146c0.323-5.593,2.72-20.143,4.468-30.767
		c0.796-4.82,1.443-8.766,1.69-10.636c0.32-2.927,0.641-5.698,0.946-8.306c0.342-2.958,0.662-5.709,0.928-8.245l39.658-11.683
		c1.041-0.307,10.187-3.187,10.491-9.838c-0.018-3.004-1.963-4.944-4.955-4.944c-1.987,0-4.047,0.843-4.691,1.131l-38.767,11.689
		l0.459-5.49c0.247-2.636-0.802-7.003-2.756-9.303c-1.168-1.377-2.408-1.735-3.296-1.795l-0.521-0.012
		c-5.834,0-6.759,4.704-7.739,9.683l-0.053,0.076l0.003,0.243c-0.021,0.176-0.104,0.611-0.225,1.272
		c-0.324,1.767-0.962,5.256-1.616,9.702l-39.45,11.905c-0.204,0.055-0.521,0.094-0.906,0.151
		c-2.772,0.413-10.135,1.509-10.401,8.758c0.007,1.156,0.484,4.928,6.336,4.928c2.197,0,4.317-0.538,4.487-0.584l37.928-11.17
		c-2.976,21.253-6.193,45.38-6.392,53.827c-0.096,3.215-0.076,6.717,0.142,10.265c-9.383,19.205-17.667,29.981-24.69,32.05
		c-2.991,0.873-4.95,0.558-6.186-1.223c-3.559-5.125,0.99-25.078,0.99-25.078c0.156-1.508-0.271-2.875-1.246-3.955
		c-0.926-1.027-2.146-1.587-3.306-1.886c1.125-1.73,1.819-3.953,2.315-5.916c0.013-0.074,1.184-7.45-2.901-12.273
		c-2.945-3.479-7.789-4.525-14.044-2.921c-8.735,2.274-26.187,18.738-29.905,48.231c-8.477,16.445-16.012,25.727-22.474,27.631
		c-2.988,0.872-4.947,0.554-6.186-1.224c-3.555-5.117,0.986-25.076,0.986-25.076c0.157-1.508-0.271-2.875-1.243-3.956
		c-0.927-1.028-2.146-1.588-3.308-1.887c1.128-1.729,1.819-3.952,2.318-5.915c0.013-0.074,1.184-7.45-2.901-12.271
		c-2.95-3.481-7.784-4.535-14.047-2.925c-8.671,2.258-25.926,18.503-29.813,47.588c0,0-0.232,3.395-0.483,6.346
		c-20.947,18.961-53.127,43.268-88.27,52.297c-19.062,4.901-33.404,2.689-42.274-6.557c-5.467-5.701-11.788-17.216-10.849-39.688
		c0.025-0.579,0.041-1,0.041-1.171c0.337-14.568,5.279-31.217,13.689-47.978c0.916,3.545,2.528,6.606,4.851,9.029
		c3.685,3.848,8.855,5.882,14.957,5.882c2.766,0,5.698-0.422,8.757-1.268c9.943-2.93,33.917-14.505,41.769-58.667
		c1.024-6.332,1.626-17.484,1.885-34.785c3.579-2.25,31.042-15.378,39.988-17.65c13.945-3.528,23.676-3.19,27.117,0.768
		c1.56,1.799,1.529,3.951,1.369,5.073l-0.034,0.342c-0.873,26.184-38.597,54.083-40.132,55.208c-0.753,0.512-1.46,0.966-2.107,1.384
		c-3.915,2.524-7.612,4.907-4.513,10.673c1.062,2.092,2.99,3.244,5.423,3.244c4.989,0,11.411-4.946,14.033-7.486
		c4.393-3.886,42.909-38.765,42.459-66.638c-0.212-13.181-9.185-20.44-25.261-20.44c-9.843,0-19.173,2.666-20.116,2.946
		c-12.813,3.233-25.73,8.824-38.264,16.183c-0.023-2.576-0.052-5.064-0.082-7.418c0.403-0.305,0.767-0.688,1.068-1.156l0.186-0.351
		c0.129-0.303,0.672-1.324,1.522-2.881c0.848-1.559,2.009-3.654,3.373-6.105c8.84-12.646,18.312-28.432,24.312-43.661
		c0.151-0.364,0.302-0.729,0.45-1.09c-0.043,0.879-0.108,1.901-0.203,3.091c-0.084,1.361-0.195,2.825-0.309,4.344
		c-0.736,9.673-1.572,20.635,2.743,25.291c1.369,1.479,3.195,2.262,5.273,2.262c0.645,0,1.325-0.076,2.063-0.231
		c10.261-2.35,16.221-20.818,19.884-33.107c0.074,6.927,0.771,15.568,5.716,20.54c2.581,2.596,6.013,3.912,10.197,3.912h0.002
		c2.069,0,4.36-0.326,6.791-0.965c19.15-4.808,32.056-32.479,36.722-44.168c3.089-7.737,3.788-14.34,1.831-17.229
		c-0.675-0.994-1.69-1.566-2.787-1.566c-1.147,0-2.778,0.593-4.039,3.44l-0.842,1.954c-5.714,13.296-17.605,40.966-32.011,43.922
		c-2.727,0.573-4.616,0.185-5.89-1.289c-4.109-4.745-2.038-19.156-0.667-28.693c1.352-9.381,1.813-13.258-0.141-14.946
		c-2.069-2.052-4.585-3.183-7.083-3.183c-4.196,0-7.711,3.033-9.376,8.043c-0.583,1.593-1.614,4.78-2.907,8.789
		c-2.72,8.416-9.397,29.097-12.953,35.58c-0.06-2.217,0.283-5.745,0.553-8.538c0.705-7.278,1.584-16.334-0.817-22.543
		c-2.091-5.249-5.178-6.351-7.395-6.351c-4.271,0-8.01,4.176-9.783,8.229c-6.449,17.807-14.548,34.595-25.823,49.497
		c0.039-2.072,0.521-19.213,5.538-33.688c0.592-1.677,0.426-3.301-0.469-4.566c-1.11-1.568-3.198-2.432-5.88-2.432
		c-3.215,0-6.798,1.227-7.526,3.881c-2.094,6.609-3.403,13.692-4.264,21.018c-6.574,13.5-15.957,29.598-25.265,32.723
		c-3.309,1.159-5.606,0.89-7.206-1.007c-2.078-2.468-3.925-8.528-2.318-23.027c0.48-2.091,0.749-4.017,0.737-5.657
		c0.2-1.337,0.422-2.721,0.675-4.176c0.207-1.195,0.306-1.955,0.306-2.142c-0.02-3.254-2.233-5.44-5.504-5.44
		c-3.401,0-7.813,2.505-9.287,7.148l-0.086,0.368c-0.081,0.55-1.975,13.231-2.525,19.93c-5.64,10.975-13.12,21.758-22.672,23.73
		c-1.671,0.359-2.985-0.063-4.236-1.39c-4.213-4.463-5.553-17.186-5.135-24.377c0.324-5.591,2.721-20.139,4.469-30.761
		c0.793-4.823,1.442-8.771,1.689-10.643c0.317-2.901,0.638-5.65,0.938-8.24c0.346-2.981,0.666-5.754,0.934-8.31l39.658-11.683
		c1.042-0.307,10.19-3.185,10.496-9.84c-0.02-3.004-1.965-4.945-4.955-4.945c-1.989,0-4.05,0.845-4.692,1.132L443.25,16.601
		l0.457-5.489c0.247-2.636-0.803-7.005-2.76-9.305c-1.169-1.377-2.405-1.734-3.293-1.794L437.136,0
		c-5.837,0-6.722,4.488-7.742,9.683l-0.052,0.076l0.003,0.244c-0.021,0.175-0.104,0.607-0.226,1.265
		c-0.323,1.769-0.959,5.259-1.615,9.711l-39.448,11.903c-0.203,0.055-0.519,0.092-0.9,0.149c-2.775,0.412-10.142,1.506-10.411,8.762
		c0.007,1.156,0.484,4.929,6.336,4.929c2.192,0,4.314-0.54,4.483-0.584l37.929-11.172c-3.127,22.394-6.195,45.488-6.389,53.826
		c-0.094,3.098-0.081,6.464,0.116,9.879c-6.389,13.293-15.12,28.75-23.867,31.328c-2.806,0.826-4.761,0.653-6.044-0.652
		c-2.685-2.724-2.919-10.145-2.826-16.355c-0.044-7.104,1.065-10.03,2.143-12.862c0.749-1.967,1.52-4.002,1.748-7.22l0.04-0.47
		c0.25-2.718,0.919-9.936-4.159-11.595c-1.021-0.327-2.081-0.493-3.154-0.493c-5.368,0-9.704,4.062-11.788,6.016
		c-0.092,0.086-0.183,0.169-0.265,0.247c0.499-1.363,1.048-2.892,1.021-4.117c0.25-2.039-0.766-5.691-2.84-8.035
		c-1.329-1.503-2.955-2.299-4.697-2.299c-0.418,0-0.844,0.048-1.159,0.121c-7.489,1.296-9.379,16.129-9.33,23.791
		c0.012,1.961,0.08,3.2,0.126,4.051c0.062,1.183,0.062,1.183-0.383,2.049c-1.8,3.711-2.75,6.094-3.668,8.399
		c-0.441,1.106-0.872,2.191-1.416,3.456c-0.937,2.354-18.248,37.023-25.284,38.036c-3.092,0.446-4.945,0.556-6.181-1.221
		c-3.556-5.118-0.741-19.084,0.487-23.41l0.333-0.099l0.166-1.574c0.158-1.508-0.271-2.875-1.246-3.954
		c-0.924-1.028-2.146-1.588-3.306-1.886c1.126-1.729,1.82-3.951,2.312-5.912c0.013-0.074,1.135-7.511-2.886-12.269
		c-2.947-3.489-7.8-4.536-14.053-2.931c-8.893,2.314-26.859,19.3-30.131,49.81c-1.362,12.729,0.244,21.74,4.779,26.788
		c0.609,0.678,1.274,1.279,1.985,1.802c-7.346,3.562-11.765-2.04-11.765-2.04c-1.015-1.056-6.922-8.414-4.811-33.783
		c0.778-8.766,2.822-27.34,4.989-47.003c2.64-23.982,5.372-48.781,5.637-54.578c0.432-7.232-0.959-23.251-9.314-32.119
		c-4.986-5.292-11.565-7.061-19.315-5.086c-23.383,6.057-38.673,46.006-46.154,71.386c-0.258-16.275-2.466-37.325-11.343-47.051
		c-4.566-5-10.56-6.669-17.38-4.905c-25.148,6.273-41.902,60.436-48.994,88.604c-1.604-16.812-6.145-41.653-18.941-54.564
		c-7.659-7.727-17.368-10.231-28.644-7.345C28.003,59.509,2.599,127.051,1.57,129.835c-0.604,1.457-2.461,6.452-1.055,9.566
		c0.515,1.133,1.391,1.938,2.806,2.4c0.456,0.099,0.913,0.148,1.357,0.148c3.996,0,5.763-3.815,6.21-6.106
		c1.958-4.432,29.642-65.907,61.863-74.046c1.493-0.377,2.945-0.568,4.311-0.568c25.394,0,26.026,67.225,26.233,89.316
		c0.018,1.993,0.037,3.712,0.062,5.097c0.382,18.647-3.303,59.24-4.104,64.969c-0.583,3.117-1.04,5.576,0.487,7.413
		c1.394,1.68,3.7,1.68,4.456,1.68c1.332,0,3.04-0.214,5.401-0.675c7.779-1.613,7.606-11.853,7.135-14.509l-0.007-0.03
		c-0.067-2.259,0.768-20.734,2.196-40.016c4.81-65.133,31.382-134.241,47.736-138.293c1.751-0.462,3.098-0.078,4.421,1.276
		c8.855,9.067,7.887,50.058,7.308,74.549c-0.092,3.847-0.173,7.372-0.216,10.426c-0.327,24.922-2.606,56.62-3.059,62.722
		l-0.102,1.367l0.016,0.015c-0.435,7.417,4.902,8.907,7.363,9.211c6.866,0.604,8.991-8.016,9.768-11.179l0.219-0.928
		c0.077-0.56,0.151-2.376,0.355-7.543c0.441-11.387,1.359-35.077,3.049-49.565c2.775-23.855,22.469-105.167,45.759-111.241
		c2.105-0.546,3.676-0.107,5.063,1.49c4.584,5.274,8.358,23.612,0.299,81.031c-4.048,29.526-3.531,49.906-2.861,59.427
		c0.531,7.5,1.754,12.997,3.256,17.029l-0.049-0.004c5.697,15.375,19.308,17.011,27.833,16.167
		c10.53-1.04,20.947-17.502,22.784-20.539c2.767-3.746,5.117-7.915,6.782-11.166c2.224,4.499,6.42,8.963,13.446,8.963
		c1.945,0,4.045-0.347,6.232-1.031c16.63-5.203,29.992-33.253,34.958-45.062c1.851-4.348,4.111-14.071,4.512-15.164
		c0.193-0.542,0.228-0.64,2.247-0.888c0.947-0.118,2.127-0.262,3.41-0.642c1.258-0.37,2.199-1.042,2.926-1.759
		c-0.885,3.488-2.074,8.905-1.569,16.312c0.037,6.083,1.478,25.932,18.417,25.932c1.815,0,3.767-0.245,5.793-0.725
		c9.655-2.232,18.959-11.605,27.755-27.865c1.149,2.792,2.624,5.258,4.505,7.198c2.914,3.003,6.547,4.526,10.789,4.526
		c1.612,0,3.332-0.226,5.09-0.666c9.398-2.255,17.945-9.089,25.28-20.022c1.026,2.436,2.378,4.771,4.162,6.73
		c3.155,3.459,7.132,5.214,11.819,5.214c2.121,0,4.405-0.373,6.758-1.099c9.105-2.681,17.115-11.623,23.378-21.093
		c-0.052,6.033,0.003,12.096,0.071,18.108c0.03,2.508,0.055,5.012,0.074,7.506c-47.246,33.59-85.822,90.625-86.989,137.604
		c-0.63,21.822,4.196,38.183,14.343,48.628c8.405,8.653,20.193,13.037,35.033,13.037c7.304,0,15.323-1.084,23.846-3.224
		c33.217-8.324,64.509-31.831,84.608-49.744c0.937,2.488,2.255,4.502,3.908,6.341c2.469,2.749,5.854,4.265,9.526,4.265
		c1.246,0,2.501-0.177,3.567-0.492c7.36-1.939,14.227-13.37,17.853-20.448c2.224,4.5,6.42,8.964,13.446,8.964
		c1.949,0,4.045-0.348,6.234-1.032c8.562-2.681,16.249-11.427,22.38-20.887c0.872,2.844,2.111,5.199,3.749,7.021
		c2.469,2.749,5.852,4.264,9.526,4.264c1.246,0,2.501-0.176,3.567-0.491c7.36-1.942,14.229-13.372,17.856-20.449
		c2.223,4.498,6.418,8.965,13.446,8.965c1.948,0,4.045-0.347,6.23-1.031c11.029-3.452,20.598-16.934,27.253-29.074
		c1.16,2.859,2.649,5.389,4.567,7.364c2.913,3.004,6.542,4.526,10.789,4.526c1.611,0,3.332-0.228,5.089-0.667
		c14.329-3.438,26.689-17.44,35.755-40.496l0.203-0.522c3.01-7.543,3.673-14.012,1.731-16.879c-0.691-1.021-1.734-1.606-2.856-1.606
		c-1.177,0-2.85,0.604-4.128,3.501l-1.282,2.995c-5.779,13.529-15.445,36.171-29.725,39.117c-1.692,0.364-2.984-0.062-4.238-1.39
		c-4.139-4.384-5.501-16.721-5.149-23.972C754.838,187.302,754.847,187.214,754.847,187.132z M304.644,119.972l-0.259,2.233
		c-0.391,0.525-0.663,1.132-0.779,1.829c-1.012,7.514-7.202,29.792-13.904,37.573c-0.021-0.027-0.037-0.05-0.045-0.066
		c-0.066,0.115-0.131,0.228-0.197,0.342c-1.063,1.176-2.139,1.983-3.206,2.297c-0.195,0.056-0.368,0.085-0.521,0.085
		c-0.164,0-0.543,0-1.067-0.637c-2.099-2.564-3.142-11.229-0.932-22.27c2.652-14.209,10.11-27.557,16.3-29.148
		c0.557-0.147,1.066-0.222,1.513-0.222c1.023,0,1.502,0.392,1.807,0.734C304.893,114.456,304.801,118.641,304.644,119.972z
		 M469.276,199.608c0.148-6.807,4.186-15.577,10.407-24.75c10.176-12.67,22.036-24.516,35.042-34.566
		c-0.108,7.278-0.457,13.323-1.122,18.85c-2.285,19.719-13.194,50.292-29.313,53.279c-1.729,0.294-3.337,0.443-4.778,0.443
		c-3.521,0-6.146-0.882-7.799-2.622C468.888,207.271,469.147,202.151,469.276,199.608z M620.393,220.409l-0.258,2.234h0.002
		c-0.392,0.524-0.664,1.13-0.78,1.827c-1.187,8.798-9.472,37.826-17.354,40.146c-0.19,0.056-0.366,0.085-0.521,0.085
		c-0.163,0-0.545,0-1.07-0.639c-2.099-2.562-3.142-11.227-0.928-22.266c2.649-14.208,10.107-27.554,16.299-29.146
		c0.559-0.146,1.067-0.221,1.512-0.221c1.023,0,1.503,0.391,1.807,0.732C620.647,214.896,620.55,219.08,620.393,220.409z
		 M697.149,197.799l-0.258,2.235h0.002c-0.388,0.523-0.662,1.133-0.78,1.829c-1.184,8.795-9.463,37.819-17.352,40.145
		c-0.192,0.055-0.368,0.085-0.521,0.085c-0.165,0-0.546,0-1.067-0.64c-2.103-2.562-3.146-11.227-0.932-22.265
		c0.053-0.286,0.121-0.567,0.176-0.853c0.688-2.061,1.166-3.994,1.422-5.753c3.383-11.511,9.488-21.203,14.701-22.542
		c0.559-0.147,1.067-0.221,1.512-0.221c1.023,0,1.503,0.391,1.807,0.732C697.403,192.286,697.306,196.47,697.149,197.799z"/>
	<path d="M473.419,410.686c-0.102-0.771-0.567-1.262-1.244-1.553c-40.41-40.871-85.474-74.513-133.842-99.249
		c-6.947-3.554-13.962-6.905-21.037-10.058c14.051-6.242,23.842-27.532,27.596-36.959c-0.016,0.197-0.026,0.37-0.04,0.57
		c-0.6,7.872-1.276,16.794,2.236,20.584c1.115,1.204,2.604,1.841,4.294,1.841c0.525,0,1.081-0.061,1.68-0.188
		c8.36-1.914,13.212-16.955,16.198-26.967c0.059,5.644,0.63,12.681,4.656,16.73c3.143,3.162,7.848,3.978,13.836,2.4
		c15.636-3.925,26.13-26.465,29.912-35.973c2.516-6.303,3.088-11.681,1.492-14.034c-0.553-0.81-1.379-1.276-2.269-1.276
		c-0.938,0-2.265,0.483-3.288,2.804l-0.695,1.606c-5.009,11.653-14.339,33.35-26.066,35.756c-2.218,0.47-3.756,0.152-4.8-1.051
		c-3.347-3.865-1.659-15.603-0.538-23.369c1.095-7.639,1.473-10.795-0.115-12.171c-1.69-1.672-3.74-2.593-5.769-2.593
		c-3.424,0-6.286,2.471-7.642,6.552c-0.474,1.298-1.312,3.891-2.367,7.152c-2.211,6.856-7.654,23.705-10.552,28.986
		c-0.046-1.806,0.232-4.681,0.45-6.957c0.575-5.925,1.292-13.302-0.666-18.358c-1.704-4.277-4.212-5.174-6.021-5.174
		c-3.479,0-6.523,3.4-7.969,6.701c-2.28,4.701-3.534,7.39-4.793,10.322c-0.744,1.861-13.715,29.189-24.293,32.306
		c-1.244,0.365-2.483,0.552-3.678,0.552c-0.203,0-0.369-0.051-0.563-0.061c3.359-4.832,6.421-10.697,9.12-17.557l0.166-0.428
		c1.768-4.428,7.528-30.924-1.53-34.736c-1.074-0.406-2.174-0.612-3.273-0.612c-12.797,0-21.689,27.428-22.02,39.006
		c-0.154,5.572,0.284,10.222,1.324,14.017c-3.515-1.297-7.04-2.546-10.578-3.747c-0.993-4.297-1.295-9.345-1.092-12.814
		c0.268-4.544,2.208-16.358,3.628-24.988c0.653-3.96,1.184-7.204,1.387-8.734c0.258-2.33,0.512-4.54,0.753-6.621
		c0.287-2.466,0.551-4.755,0.773-6.863l32.305-9.515c0.848-0.25,8.298-2.593,8.542-8.016c-0.012-2.445-1.595-4.024-4.033-4.024
		c-1.619,0-3.295,0.687-3.82,0.922l-31.577,9.52l0.375-4.472c0.199-2.149-0.66-5.711-2.252-7.582
		c-0.952-1.119-1.958-1.41-2.682-1.458l-0.421-0.01c-4.75,0-5.503,3.827-6.3,7.88l-0.042,0.261c-0.02,0.137-0.081,0.475-0.176,0.988
		c-0.265,1.445-0.786,4.296-1.325,7.958l-32.127,9.696c-0.167,0.044-0.425,0.074-0.738,0.12c-2.258,0.338-8.258,1.227-8.478,7.138
		c0.007,0.942,0.395,4.014,5.162,4.014c1.785,0,3.519-0.438,3.651-0.476l30.892-9.101c-2.549,18.229-5.044,37.027-5.202,43.843
		c-0.078,2.584-0.067,5.396,0.103,8.25c-29.762-9.062-60.216-14.717-90.833-16.838c-27.662-1.918-55.477-0.881-82.998,3.004
		c-14.157,1.998-28.234,4.662-42.205,8.104c-7.293,1.799-14.558,3.794-21.786,5.957c-3.357,1.005-6.703,2.065-10.042,3.157
		c-4.669,1.53-11.102,2.521-13.944,7.713c-0.281,0.807-0.135,1.472,0.437,1.997c4.06,3.03,10.079-0.262,14.311-1.668
		c3.587-1.193,7.189-2.322,10.798-3.412c3.329-1.005,6.669-1.954,10.016-2.871c0.112-0.03,0.208-0.058,0.296-0.082
		c0.146-0.038,0.352-0.092,0.643-0.17c0.837-0.221,1.676-0.437,2.514-0.653c1.956-0.505,3.915-0.987,5.875-1.462
		c6.994-1.693,14.021-3.172,21.07-4.483c3.379-0.628,6.764-1.201,10.153-1.74c0.846-0.137,1.693-0.266,2.541-0.395
		c0.027-0.005,1.208-0.178,1.582-0.232c1.84-0.264,3.682-0.51,5.524-0.747c28.298-3.641,55.408-4.102,83.617-1.509
		c54.142,4.977,107.37,21.946,157.063,48.626c22.864,12.274,44.921,26.845,66.049,43.118c10.605,8.169,20.958,16.829,31.071,25.887
		c4.902,4.395,9.738,8.9,14.52,13.49c2.483,2.385,4.945,4.802,7.396,7.236c1.221,1.214,2.437,2.439,3.649,3.667
		c2.071,2.094,5.068,1.731,7.556,1.155c2.353-0.545,4.658-1.336,6.812-2.644c1.116-0.678,3.204-1.945,3.651-3.725
		C473.522,411.492,473.549,411.087,473.419,410.686z M310.402,248.611c0.39,0.985,0.522,4.863-2.505,14.439
		c-0.278,0.91-0.532,1.781-0.781,2.641c-1.181,4.086-2.231,7.725-5.746,13.78C301.266,267.331,307.531,250.729,310.402,248.611z"/>
</g>
<g>
	<path d="M465.555,360.94c2.053,0,4.021,0.516,5.906,1.547s3.367,2.504,4.445,4.414c1.078,1.912,1.617,3.914,1.617,6.008
		c0,2.084-0.529,4.07-1.586,5.961s-2.531,3.365-4.422,4.422s-3.877,1.586-5.961,1.586s-4.07-0.529-5.961-1.586
		s-3.365-2.531-4.422-4.422s-1.586-3.877-1.586-5.961c0-2.094,0.539-4.096,1.617-6.008c1.078-1.91,2.561-3.383,4.445-4.414
		S463.502,360.94,465.555,360.94z M465.555,363.3c-1.646,0-3.227,0.412-4.742,1.234c-1.516,0.824-2.705,2.004-3.57,3.539
		c-0.865,1.537-1.297,3.148-1.297,4.836c0,1.668,0.424,3.262,1.273,4.781c0.85,1.521,2.033,2.707,3.555,3.555
		c1.521,0.85,3.115,1.273,4.781,1.273s3.26-0.424,4.781-1.273c1.521-0.848,2.705-2.033,3.555-3.555
		c0.85-1.52,1.273-3.113,1.273-4.781c0-1.676-0.432-3.285-1.297-4.828c-0.865-1.541-2.055-2.723-3.57-3.547
		C468.782,363.712,467.202,363.3,465.555,363.3z M468.461,374.69l2.516,0.844c-0.396,1.312-1.053,2.318-1.969,3.016
		c-0.916,0.699-2.01,1.047-3.281,1.047c-1.781,0-3.234-0.582-4.359-1.75c-1.125-1.166-1.688-2.775-1.688-4.828
		c0-1.344,0.25-2.541,0.75-3.594c0.5-1.051,1.221-1.838,2.164-2.359c0.943-0.52,1.998-0.781,3.164-0.781
		c1.281,0,2.352,0.305,3.211,0.914s1.529,1.57,2.008,2.883l-2.531,0.594c-0.291-0.76-0.67-1.312-1.133-1.656
		s-1.014-0.516-1.648-0.516c-0.947,0-1.725,0.357-2.328,1.07c-0.604,0.715-0.906,1.832-0.906,3.352c0,1.521,0.297,2.641,0.891,3.359
		s1.307,1.078,2.141,1.078c0.697,0,1.303-0.205,1.812-0.617C467.784,376.335,468.18,375.649,468.461,374.69z"/>
</g>
</svg>
